<svg id="Layer_1" data-name="Layer 1" xmlns="http://www.w3.org/2000/svg" viewBox="0 0 65 65"><defs><style>.cls-1{fill:#009cde;}</style></defs><title>3</title><path class="cls-1" d="M25.52,25.12v2.43a.89.89,0,0,1-.59.93l-5.06,2.6c-.22.11-.48.19-.7.28a5.64,5.64,0,0,1-.75.22,5.64,5.64,0,0,1,.75.22c.22.09.48.17.7.28l5.06,2.6a1.06,1.06,0,0,1,.48.42,1.08,1.08,0,0,1,.11.5v2.47L14.45,32.28v-1.4Z"/><path class="cls-1" d="M29.58,41.62a2.07,2.07,0,0,1-.45.39,1.65,1.65,0,0,1-.53.22,2,2,0,0,1-.56.11H26.59l8.16-20.91a2.11,2.11,0,0,1,.7-.9,1.81,1.81,0,0,1,1.09-.3H38L29.89,41.06A2,2,0,0,1,29.58,41.62Z"/><path class="cls-1" d="M39.06,35.6a1.11,1.11,0,0,1,.14-.5,1,1,0,0,1,.48-.42l5.06-2.6a8.36,8.36,0,0,1,1.42-.5,5.64,5.64,0,0,1-.75-.22c-.23-.09-.45-.17-.67-.28l-5.06-2.6a1,1,0,0,1-.62-.9V25.12l11.07,5.76v1.4L39.06,38.07Z"/><path class="cls-1" d="M60.11,51.44H4.89a2.51,2.51,0,0,1-2.51-2.51V13.8a2.51,2.51,0,0,1,2.51-2.51H60.11a2.51,2.51,0,0,1,2.51,2.51V48.93a2.51,2.51,0,0,1-2.51,2.51ZM6,47.75H59V15H6V47.75Z"/><path class="cls-1" d="M61.89,60.4H3.11a2.28,2.28,0,1,1,0-4.54H61.89a2.28,2.28,0,1,1,0,4.54Z"/></svg>