<svg id="Layer_1" data-name="Layer 1" xmlns="http://www.w3.org/2000/svg" viewBox="0 0 65 65"><defs><style>.cls-1{fill:none;}.cls-2,.cls-3{fill:#009cde;stroke:#009cde;stroke-miterlimit:10;}.cls-2{stroke-width:1.5px;}.cls-3{stroke-width:0.25px;}</style></defs><title>1</title><path class="cls-1" d="M20.56,34.3H43.09a2.51,2.51,0,0,1,2.5,2.52v6.56H51a10.68,10.68,0,0,0,10.65-10.7c0-5.54-3.74-9.72-8.71-9.72h-1V22c0-3.76-2-7.78-7.74-7.78H42.66l-.28-.5a14.23,14.23,0,0,0-12.7-7.28A14.57,14.57,0,0,0,15.16,21v1h-1a10.7,10.7,0,0,0,0,21.4h3.87V36.82A2.51,2.51,0,0,1,20.56,34.3Z"/><rect class="cls-1" x="17.6" y="44.73" width="28.44" height="6.2"/><rect class="cls-1" x="17.6" y="34" width="28.44" height="8.28"/><path class="cls-2" d="M12.34,44.52a.91.91,0,0,1-1,.78C4.81,44.86,1.61,38.67,1.61,33a13,13,0,0,1,11.64-13A16.5,16.5,0,0,1,29.68,4.48a16.16,16.16,0,0,1,14.11,7.78h.41c5.56,0,9.26,3.42,9.65,8.79,5.6.49,9.7,5.32,9.71,11.63,0,7.44-4,12.31-11,12.31h-.35a.81.81,0,0,1-.81-.81v-.25a.87.87,0,0,1,.88-.88h.28c5.87,0,9-4.34,9-10.37,0-5.54-3.74-9.72-8.71-9.72h-1V22c0-3.76-2-7.78-7.74-7.78H42.66l-.28-.5a14.23,14.23,0,0,0-12.7-7.28A14.57,14.57,0,0,0,15.16,21v1h-1C8.32,22,3.54,27.12,3.54,33c0,4.63,2.36,9.93,7.87,10.33a1,1,0,0,1,.93,1Z"/><path class="cls-3" d="M40.71,42.56a1.39,1.39,0,0,1-1.39-1.39V37.34a7.5,7.5,0,1,0-15,0v3.83a1.39,1.39,0,1,1-2.77,0V37.34a10.27,10.27,0,1,1,20.53,0v3.83a1.38,1.38,0,0,1-1.38,1.39Z"/><path class="cls-3" d="M31.83,45.58A2.89,2.89,0,0,0,30.44,51v3.26h2.77V51a2.89,2.89,0,0,0-1.38-5.42Z"/><path class="cls-3" d="M44.28,40.12H19.37a2.78,2.78,0,0,0-2.77,2.79V57.74a2.78,2.78,0,0,0,2.77,2.78H44.28a2.78,2.78,0,0,0,2.77-2.78V42.91A2.78,2.78,0,0,0,44.28,40.12Zm0,12.19v5.43H19.37V42.91H44.28v9.4Z"/></svg>